<svg width="24" height="26" viewBox="0 0 24 26" fill="none" xmlns="http://www.w3.org/2000/svg">
<path d="M11.9943 2.125C10.0165 2.125 8.08312 2.74815 6.43863 3.91564C4.79413 5.08313 3.51241 6.74252 2.75553 8.68399C1.99866 10.6255 1.80062 12.7618 2.18648 14.8228C2.57233 16.8839 3.52474 18.7771 4.92326 20.263C6.32179 21.7489 8.10362 22.7609 10.0434 23.1708C11.9832 23.5808 13.9939 23.3704 15.8212 22.5662C17.6484 21.762 19.2102 20.4002 20.309 18.6529C21.4078 16.9057 21.9943 14.8514 21.9943 12.75C21.9944 11.3547 21.7359 9.97299 21.2333 8.68385C20.7308 7.39471 19.9942 6.22338 19.0656 5.23673C18.137 4.25009 17.0346 3.46746 15.8213 2.93354C14.608 2.39963 13.3076 2.12488 11.9943 2.125V2.125ZM15.1738 18.2245C15.1364 18.3237 15.0795 18.4132 15.0068 18.487C14.9342 18.5609 14.8475 18.6174 14.7526 18.6528C14.6577 18.6882 14.5568 18.7016 14.4566 18.6921C14.3565 18.6827 14.2594 18.6506 14.1718 18.598L11.4572 16.3568L9.71485 18.0646C9.67442 18.0964 9.62713 18.1168 9.57733 18.124C9.52752 18.1312 9.47681 18.125 9.42985 18.106L9.76385 14.9308L9.77454 14.9398L9.78137 14.8771C9.78137 14.8771 14.6664 10.1516 14.8654 9.95027C15.0668 9.74946 15.0004 9.7059 15.0004 9.7059C15.0118 9.46096 14.6388 9.7059 14.6388 9.7059L8.16633 14.1302L5.47084 13.1548C5.47084 13.1548 5.05684 12.997 5.01784 12.6501C4.97684 12.3059 5.48433 12.1189 5.48433 12.1189L16.2013 7.59527C16.2013 7.59527 17.0823 7.17822 17.0823 7.86888L15.1738 18.2245Z" fill="#343232"/>
</svg>
